# xmcd
#
# Track frame offsets:
#	150
#	15722
#	32806
#	42512
#	57858
#	73834
#	95469
#	118321
#	142038
#	159125
#
# Disc length: 2924 seconds
#
# Revision: 1
# Processed by: cddbd v1.5.2PL0 Copyright (c) Steve Scherf et al.
# Submitted via: audiograbber 1.83.01
#
DISCID=8b0b6a0a
DTITLE=Ina Müller - Live - CD2
DYEAR=2012
DGENRE=Pop
TTITLE0=Fremdgehen
TTITLE1=Brittpop
TTITLE2=Über weibliche Piloten
TTITLE3=Gleichberechtigung
TTITLE4=Über männliche Piloten
TTITLE5=Ich ziehe aus
TTITLE6=Über das Altern
TTITLE7=Auf halber Strecke
TTITLE8=Dumm kickt gut
TTITLE9=Das wär dein Lied gewesen
EXTD=
EXTT0=
EXTT1=
EXTT2=
EXTT3=
EXTT4=
EXTT5=
EXTT6=
EXTT7=
EXTT8=
EXTT9=
PLAYORDER=
